<svg width="109" height="79" viewBox="0 0 109 79" fill="none" xmlns="http://www.w3.org/2000/svg">
<g clip-path="url(#clip0_355_2)">
<path d="M11.56 40.65C11.6342 39.2118 11.2867 37.7833 10.56 36.54C9.82452 35.4924 8.77333 34.7075 7.56 34.3L0.61 31.79C0.2 31.64 0 31.24 0 30.6V23.89C0 23.25 0.2 23 0.61 23.15L7.53 25.66C10.5422 26.7296 13.0763 28.8349 14.68 31.6C16.4516 34.7154 17.3337 38.2575 17.23 41.84V42.84C17.2715 44.7085 17.0321 46.5726 16.52 48.37C16.1557 49.7309 15.4301 50.9679 14.42 51.95C15.99 57.74 16.77 60.63 18.33 66.41C18.49 67.21 18.33 67.52 17.87 67.35L12.48 65.35C12.2859 65.2639 12.1205 65.1239 12.0035 64.9467C11.8865 64.7694 11.8228 64.5623 11.82 64.35L9.24 53.22C8.65877 53.1075 8.08708 52.9504 7.53 52.75L7.05 52.57C6.87868 52.5039 6.71168 52.4271 6.55 52.34V62.23C6.55 62.88 6.34 63.13 5.94 62.98L1.19 61.25C0.8 61.11 0.61 60.72 0.61 60.07V34C0.61 33.36 0.8 33.1 1.19 33.24L5.94 34.97C6.34 35.12 6.55 35.52 6.55 36.16V43.7C6.71168 43.7871 6.87868 43.8639 7.05 43.93L7.53 44.1C8.88 44.6 9.89 44.58 10.53 44.05C11.17 43.52 11.56 42.38 11.56 40.65Z" fill="#8D5037"/>
<path d="M26.6498 71.24C25.4685 70.8118 24.3668 70.19 23.3898 69.4C22.3612 68.5611 21.4909 67.5451 20.8198 66.4C20.0565 65.0699 19.4938 63.6344 19.1498 62.14C18.7182 60.2883 18.5133 58.3911 18.5398 56.49V52.29C18.4927 50.5331 18.6981 48.7785 19.1498 47.08C19.4369 45.9521 20.0124 44.9182 20.8198 44.08C21.5192 43.4234 22.4313 43.0402 23.3898 43C24.5016 42.9453 25.6125 43.1259 26.6498 43.53C27.8313 43.9642 28.9354 44.5854 29.9198 45.37C30.9507 46.2092 31.8243 47.225 32.4998 48.37C33.2623 49.7015 33.8281 51.1364 34.1798 52.63C34.6062 54.4825 34.8109 56.3791 34.7898 58.28V62.48C34.8324 64.2367 34.627 65.9906 34.1798 67.69C33.8856 68.8172 33.3072 69.8501 32.4998 70.69C31.8007 71.3588 30.8858 71.756 29.9198 71.81C28.8019 71.8507 27.688 71.6565 26.6498 71.24ZM26.6498 63.42C27.0246 63.5739 27.445 63.5739 27.8198 63.42C28.1452 63.2708 28.4148 63.0222 28.5898 62.71C28.7893 62.3414 28.9278 61.9429 28.9998 61.53C29.0836 61.0343 29.1271 60.5327 29.1298 60.03V56.51C29.1258 55.9841 29.0824 55.4593 28.9998 54.94C28.9118 54.4171 28.771 53.9045 28.5798 53.41C28.3956 52.9407 28.1354 52.5049 27.8098 52.12C27.4992 51.748 27.0954 51.465 26.6398 51.3C26.2614 51.1465 25.8382 51.1465 25.4598 51.3C25.1315 51.4556 24.8642 51.7159 24.6998 52.04C24.4905 52.4185 24.3516 52.8319 24.2898 53.26C24.2124 53.7494 24.1757 54.2445 24.1798 54.74V58.27C24.1776 58.7986 24.2144 59.3267 24.2898 59.85C24.3598 60.3755 24.4976 60.8898 24.6998 61.38C24.8876 61.8392 25.1439 62.2674 25.4598 62.65C25.7833 63.0051 26.1933 63.2704 26.6498 63.42Z" fill="#8D5037"/>
<path d="M44.9201 77.89C43.7429 77.4595 42.6449 76.8378 41.6701 76.05C40.6394 75.2133 39.7687 74.1969 39.1001 73.05C38.3342 71.72 37.7681 70.2847 37.4201 68.79C36.9937 66.9375 36.7889 65.0408 36.8101 63.14V59C36.768 57.2433 36.9733 55.4894 37.4201 53.79C37.7142 52.6628 38.2927 51.6298 39.1001 50.79C39.7936 50.1188 40.7063 49.7211 41.6701 49.67C42.7787 49.6146 43.8865 49.7952 44.9201 50.2C46.1027 50.6205 47.2102 51.2282 48.2001 52C49.2332 52.8369 50.1072 53.8532 50.7801 55C51.5442 56.3272 52.1102 57.759 52.4601 59.25C52.8831 61.1029 53.0845 62.9995 53.0601 64.9V69.1C53.1054 70.8562 52.9034 72.6101 52.4601 74.31C52.1622 75.4357 51.5842 76.4678 50.7801 77.31C50.0776 77.9722 49.1639 78.3653 48.2001 78.42C47.0817 78.4748 45.9642 78.2943 44.9201 77.89ZM44.9201 70.07C45.2984 70.2234 45.7217 70.2234 46.1001 70.07C46.4241 69.9227 46.691 69.6733 46.8601 69.36C47.0758 68.9835 47.2183 68.5695 47.2801 68.14C47.3726 67.6453 47.4195 67.1432 47.4201 66.64V63.16C47.4177 62.6336 47.3708 62.1084 47.2801 61.59C47.2014 61.0651 47.0604 60.5515 46.8601 60.06C46.6832 59.5893 46.426 59.1528 46.1001 58.77C45.7812 58.4141 45.3742 58.1486 44.9201 58C44.5452 57.8461 44.1249 57.8461 43.7501 58C43.4189 58.1551 43.1482 58.4152 42.9801 58.74C42.7787 59.1246 42.6434 59.5405 42.5801 59.97C42.4988 60.4557 42.4586 60.9475 42.4601 61.44V64.97C42.4613 65.4989 42.5015 66.027 42.5801 66.55C42.6641 67.0478 42.8051 67.5343 43.0001 68C43.1921 68.4593 43.4516 68.8873 43.7701 69.27C44.0797 69.6295 44.4753 69.9047 44.9201 70.07Z" fill="#8D5037"/>
<path d="M61.1499 75.44L56.0899 77.29C55.6499 77.45 55.4199 77.2 55.4199 76.54V52.76C55.3876 52.5224 55.4362 52.2809 55.5577 52.0741C55.6792 51.8674 55.8666 51.7075 56.0899 51.62L61.1499 49.78C61.5899 49.62 61.8099 49.78 61.8099 50.43V50.81C62.2749 50.1699 62.8269 49.5978 63.4499 49.11C64.0482 48.626 64.7245 48.2473 65.4499 47.99C67.4899 47.25 69.1332 47.5467 70.3799 48.88C71.0316 47.6667 71.9229 46.5985 72.9999 45.74C73.8392 45.1158 74.7571 44.6047 75.7299 44.22C76.7067 43.8286 77.7734 43.7178 78.8099 43.9C79.7555 44.1152 80.5969 44.6526 81.1899 45.42C81.9498 46.4147 82.4792 47.5657 82.7399 48.79C83.1488 50.4959 83.3436 52.246 83.3199 54V66.39C83.3199 67.05 83.0999 67.46 82.6499 67.62L77.6499 69.45C77.1999 69.61 76.9799 69.36 76.9799 68.7V56.65C77.0805 55.3946 76.8458 54.135 76.2999 53C76.0888 52.6824 75.7667 52.4551 75.3967 52.3626C75.0267 52.2701 74.6356 52.3191 74.2999 52.5C73.9293 52.6442 73.5899 52.858 73.2999 53.13C72.9201 53.4953 72.6086 53.9253 72.3799 54.4C72.5209 55.5646 72.5877 56.737 72.5799 57.91V70.28C72.5799 70.9467 72.3599 71.3567 71.9199 71.51L66.9199 73.34C66.4799 73.5 66.2599 73.25 66.2599 72.59V60.53C66.3606 59.271 66.1475 58.0066 65.6399 56.85C65.2299 56.18 64.4899 56.04 63.4299 56.43C62.7599 56.7048 62.1883 57.1753 61.7899 57.78V74.21C61.8032 74.87 61.5899 75.28 61.1499 75.44Z" fill="#8D5037"/>
<path d="M86.9996 36.83C86.5296 37 86.2996 36.77 86.2996 36.15V29.36C86.2619 29.1049 86.3102 28.8445 86.437 28.62C86.5637 28.3954 86.7617 28.2195 86.9996 28.12L92.2596 26.21C92.7196 26.04 92.9496 26.28 92.9496 26.94V33.72C92.9839 33.9682 92.9348 34.2208 92.8099 34.438C92.6849 34.6552 92.4914 34.8248 92.2596 34.92L86.9996 36.83ZM92.9996 62.83C92.9996 63.49 92.7796 63.9 92.3396 64.07L86.9996 66C86.5596 66.17 86.3396 65.92 86.3396 65.26V41.52C86.3067 41.2836 86.3538 41.043 86.4734 40.8364C86.593 40.6298 86.7782 40.4692 86.9996 40.38L92.2996 38.45C92.7596 38.28 92.9896 38.45 92.9896 39.09L92.9996 62.83Z" fill="#CE7264"/>
<path d="M97.4698 36.56V31.1C97.439 30.8574 97.4915 30.6115 97.6186 30.4026C97.7458 30.1937 97.9401 30.0341 98.1698 29.95L103.46 28C103.9 27.84 104.13 28.06 104.13 28.66V34.12L107.75 32.8C108.22 32.63 108.45 32.86 108.45 33.49V39.75C108.489 40.0053 108.442 40.2664 108.315 40.4914C108.188 40.7163 107.989 40.892 107.75 40.99L104.13 42.31V49.85C104.13 50.76 104.25 51.33 104.49 51.55C104.73 51.77 105.11 51.8 105.62 51.61L107.82 50.81C107.897 50.7778 107.982 50.7673 108.064 50.7796C108.147 50.7919 108.225 50.8266 108.29 50.88C108.369 50.9729 108.428 51.0815 108.462 51.1987C108.497 51.3159 108.506 51.439 108.49 51.56V58C108.525 58.2445 108.478 58.4937 108.357 58.7089C108.236 58.9241 108.047 59.0933 107.82 59.19L105.62 59.99C104.408 60.4795 103.116 60.7406 101.81 60.76C101.346 60.7679 100.885 60.6836 100.454 60.512C100.023 60.3403 99.631 60.0847 99.2998 59.76C98.561 58.9111 98.0759 57.8715 97.8998 56.76C97.5804 55.0761 97.4363 53.3636 97.4698 51.65V44.76L95.6698 45.41C95.2098 45.58 94.9698 45.34 94.9698 44.68V38.41C94.9367 38.1619 94.9877 37.91 95.1146 37.6943C95.2415 37.4786 95.4369 37.3116 95.6698 37.22L97.4698 36.56Z" fill="#CE7264"/>
<path d="M42.9404 33.76L49.3504 36.09C52.0595 37.0801 55.0314 37.0801 57.7404 36.09L64.1604 33.76L53.5504 29.9L42.9404 33.76Z" fill="#8D4F37"/>
<path d="M53.5495 37.4C52.0522 37.4043 50.566 37.1436 49.1595 36.63L41.2695 33.76L53.5495 29.29L65.8295 33.76L57.9395 36.63C56.5329 37.1428 55.0468 37.4035 53.5495 37.4ZM44.5995 33.76L49.5495 35.56C52.1334 36.5 54.9657 36.5 57.5495 35.56L62.4895 33.76L53.5495 30.51L44.5995 33.76Z" fill="#4C2B1D"/>
<path d="M53.5498 4.24998V29.9L64.1598 33.76L97.1598 21.76C97.8674 21.5005 98.4783 21.03 98.9098 20.4121C99.3414 19.7942 99.5728 19.0587 99.5728 18.305C99.5728 17.5513 99.3414 16.8158 98.9098 16.1979C98.4783 15.58 97.8674 15.1095 97.1598 14.85L58.4798 0.799979C57.925 0.597183 57.3295 0.531293 56.7438 0.607905C56.1581 0.684517 55.5996 0.901369 55.1156 1.24004C54.6317 1.57871 54.2366 2.02918 53.964 2.5532C53.6914 3.07722 53.5493 3.6593 53.5498 4.24998Z" fill="#A56A46"/>
<path d="M64.16 34.37L53 30.3V4.29997C52.9975 3.61703 53.16 2.9436 53.4737 2.33695C53.7873 1.73031 54.2429 1.2084 54.8016 0.815645C55.3603 0.422887 56.0056 0.170897 56.6826 0.0811131C57.3596 -0.00867041 58.0483 0.0664098 58.69 0.299966L97.32 14.32C98.1439 14.6158 98.8563 15.1587 99.36 15.8747C99.8636 16.5906 100.134 17.4446 100.134 18.32C100.134 19.1953 99.8636 20.0493 99.36 20.7653C98.8563 21.4812 98.1439 22.0242 97.32 22.32L64.16 34.37ZM54.16 29.5L64.16 33.15L96.93 21.23C97.5292 21.0132 98.0469 20.617 98.4129 20.0954C98.7788 19.5738 98.9752 18.9521 98.9752 18.315C98.9752 17.6778 98.7788 17.0561 98.4129 16.5345C98.0469 16.0129 97.5292 15.6168 96.93 15.4L58.28 1.32997C57.8112 1.16179 57.3088 1.1087 56.8151 1.17515C56.3214 1.24161 55.851 1.42567 55.4433 1.71184C55.0356 1.99802 54.7026 2.37793 54.4723 2.81962C54.242 3.26131 54.1212 3.75185 54.12 4.24997L54.16 29.5Z" fill="#4C2B1D"/>
<path d="M48.6199 0.799979L9.99988 14.86C9.29228 15.1195 8.68142 15.59 8.24987 16.2079C7.81833 16.8258 7.58691 17.5613 7.58691 18.315C7.58691 19.0687 7.81833 19.8042 8.24987 20.4221C8.68142 21.04 9.29228 21.5105 9.99988 21.77L42.9999 33.77L53.5499 29.9V4.24998C53.5504 3.6593 53.4083 3.07722 53.1357 2.5532C52.8631 2.02918 52.468 1.57871 51.9841 1.24004C51.5001 0.901369 50.9416 0.684517 50.3559 0.607905C49.7702 0.531293 49.1747 0.597183 48.6199 0.799979Z" fill="#D9BAA8"/>
<path d="M42.9397 34.37L9.77968 22.3C8.95582 22.0042 8.2434 21.4612 7.73975 20.7453C7.23611 20.0293 6.96582 19.1753 6.96582 18.3C6.96582 17.4246 7.23611 16.5706 7.73975 15.8547C8.2434 15.1387 8.95582 14.5958 9.77968 14.3L48.4197 0.259985C49.062 0.0243986 49.7518 -0.052262 50.4301 0.0365477C51.1085 0.125357 51.7553 0.377 52.3153 0.769992C52.8753 1.16298 53.3319 1.68565 53.6461 2.29338C53.9603 2.90111 54.1228 3.57584 54.1197 4.25998V30.3L42.9397 34.37ZM48.8097 1.36998L10.1697 15.4C9.57055 15.6168 9.05277 16.013 8.68683 16.5346C8.32089 17.0561 8.12456 17.6778 8.12456 18.315C8.12456 18.9521 8.32089 19.5738 8.68683 20.0954C9.05277 20.617 9.57055 21.0132 10.1697 21.23L42.9397 33.15L52.9997 29.5V4.24998C52.9968 3.75147 52.8745 3.26091 52.6431 2.81938C52.4116 2.37785 52.0777 1.99821 51.6693 1.71226C51.261 1.42631 50.7901 1.24238 50.296 1.17587C49.8019 1.10936 49.2991 1.16221 48.8297 1.32998L48.8097 1.36998Z" fill="#4C2B1D"/>
</g>
<defs>
<clipPath id="clip0_355_2">
<rect width="108.49" height="78.44" fill="white"/>
</clipPath>
</defs>
</svg>
